<svg xmlns="http://www.w3.org/2000/svg" width="944" height="619" viewBox="0 0 944 619"><defs><style type="text/css"/></defs><g transform="translate(1700.1600754995782 3202.4160343562085) scale(1)"><g class="relationship"><g transform="translate(-1507.3505056127133 -3148.4160343562085) rotate(25.71649051346769)" stroke-width="5" stroke="#000000"><path d="M 59 0 L 238.270000865522 0"/><polygon points="-24.8621506177483,0 -27.62461179749811,9.20820393249937 0,0 -27.62461179749811,-9.20820393249937" fill="#000000" transform="translate(263.1321514832703 0) rotate(0)" stroke="none"/></g><g transform="translate(-1373.4374792932192 -3083.920571449107) rotate(25.71649051346769) translate(0 -13)"><g transform="translate(0 0)"><g transform="translate(-31.68359375 0)" fill="#ffffff" stroke="#000000" stroke-width="0"><rect x="0" y="0" width="63.3671875" height="26" rx="5" ry="5" stroke="none"/><text xml:space="preserve" x="5" y="17.5" stroke="none" text-anchor="left" font-family="sans-serif" font-size="16" font-weight="normal" fill="#000000">ecouter</text></g></g></g></g><g class="relationship"><g transform="translate(-1507.3505056127133 -3148.4160343562085) rotate(119.99999999999999)" stroke-width="5" stroke="#000000"><path d="M 59 0 L 193.75698915598164 0"/><polygon points="-24.8621506177483,0 -27.62461179749811,9.20820393249937 0,0 -27.62461179749811,-9.20820393249937" fill="#000000" transform="translate(218.61913977372996 0) rotate(0)" stroke="none"/></g><g transform="translate(-1570.5397529017087 -3038.9690475596344) rotate(299.99999999999994) translate(0 -13)"><g transform="translate(0 0)"><g transform="translate(-40.1328125 0)" fill="#ffffff" stroke="#000000" stroke-width="0"><rect x="0" y="0" width="80.265625" height="26" rx="5" ry="5" stroke="none"/><text xml:space="preserve" x="5" y="17.5" stroke="none" text-anchor="left" font-family="sans-serif" font-size="16" font-weight="normal" fill="#000000">connecter</text></g></g></g></g><g class="relationship"><g transform="translate(-1507.3505056127133 -3148.4160343562085) rotate(73.58316994284408)" stroke-width="5" stroke="#000000"><path d="M 59 0 L 161.93642168576963 0"/><polygon points="-24.8621506177483,0 -27.62461179749811,9.20820393249937 0,0 -27.62461179749811,-9.20820393249937" fill="#000000" transform="translate(186.79857230351791 0) rotate(0)" stroke="none"/></g><g transform="translate(-1476.129622669827 -3042.4515021999505) rotate(73.58316994284408) translate(0 -13)"><g transform="translate(0 0)"><g transform="translate(-20.5703125 0)" fill="#ffffff" stroke="#000000" stroke-width="0"><rect x="0" y="0" width="41.140625" height="26" rx="5" ry="5" stroke="none"/><text xml:space="preserve" x="5" y="17.5" stroke="none" text-anchor="left" font-family="sans-serif" font-size="16" font-weight="normal" fill="#000000">peut</text></g></g></g></g><g class="relationship"><g transform="translate(-1405.3395596115333 -2669.0036157721643) rotate(-97.60802555319151)" stroke-width="5" stroke="#000000"><path d="M 59 0 L 161.93642168576952 0"/><polygon points="-24.8621506177483,0 -27.62461179749811,9.20820393249937 0,0 -27.62461179749811,-9.20820393249937" fill="#000000" transform="translate(186.7985723035178 0) rotate(0)" stroke="none"/></g><g transform="translate(-1419.9650238851204 -2778.4993755147684) rotate(82.3919744468085) translate(0 -13)"><g transform="translate(0 0)"><g transform="translate(-18.78515625 0)" fill="#ffffff" stroke="#000000" stroke-width="0"><rect x="0" y="0" width="37.5703125" height="26" rx="5" ry="5" stroke="none"/><text xml:space="preserve" x="5" y="17.5" stroke="none" text-anchor="left" font-family="sans-serif" font-size="16" font-weight="normal" fill="#000000">etre</text></g></g></g></g><g class="relationship"><g transform="translate(-1217.1248444001046 -3008.636963702034) rotate(-17.469583778083603)" stroke-width="5" stroke="#000000"><path d="M 59 0 L 204.51155924904836 0"/><polygon points="-24.8621506177483,0 -27.62461179749811,9.20820393249937 0,0 -27.62461179749811,-9.20820393249937" fill="#000000" transform="translate(229.37370986679667 0) rotate(0)" stroke="none"/></g><g transform="translate(-1091.4461090644813 -3048.189978111868) rotate(-17.469583778083603) translate(0 -13)"><g transform="translate(0 0)"><g transform="translate(-33.015625 0)" fill="#ffffff" stroke="#000000" stroke-width="0"><rect x="0" y="0" width="66.03125" height="26" rx="5" ry="5" stroke="none"/><text xml:space="preserve" x="5" y="17.5" stroke="none" text-anchor="left" font-family="sans-serif" font-size="16" font-weight="normal" fill="#000000">est faite</text></g></g></g></g><g class="relationship"><g transform="translate(-1036.4059996184073 -2887.085001211977) rotate(-65.61235252189023)" stroke-width="5" stroke="#000000"><path d="M 59 0 L 144.6488655804353 0"/><polygon points="-24.8621506177483,0 -27.62461179749811,9.20820393249937 0,0 -27.62461179749811,-9.20820393249937" fill="#000000" transform="translate(169.51101619818363 0) rotate(0)" stroke="none"/></g><g transform="translate(-994.36186817553 -2979.823914965933) rotate(-65.61235252189023) translate(0 -13)"><g transform="translate(0 0)"><g transform="translate(-33.01953125 0)" fill="#ffffff" stroke="#000000" stroke-width="0"><rect x="0" y="0" width="66.0390625" height="26" rx="5" ry="5" stroke="none"/><text xml:space="preserve" x="5" y="17.5" stroke="none" text-anchor="left" font-family="sans-serif" font-size="16" font-weight="normal" fill="#000000">contient</text></g></g></g></g><g class="relationship"><g transform="translate(-1036.4059996184073 -2887.085001211977) rotate(31.830235230633292)" stroke-width="5" stroke="#000000"><path d="M 59 0 L 181.3042196925652 0"/><polygon points="-24.8621506177483,0 -27.62461179749811,9.20820393249937 0,0 -27.62461179749811,-9.20820393249937" fill="#000000" transform="translate(206.16637031031348 0) rotate(0)" stroke="none"/></g><g transform="translate(-934.3230251503066 -2823.7162721395216) rotate(31.830235230633292) translate(0 -13)"><g transform="translate(0 0)"><g transform="translate(-20.12109375 0)" fill="#ffffff" stroke="#000000" stroke-width="0"><rect x="0" y="0" width="40.2421875" height="26" rx="5" ry="5" stroke="none"/><text xml:space="preserve" x="5" y="17.5" stroke="none" text-anchor="left" font-family="sans-serif" font-size="16" font-weight="normal" fill="#000000">faite</text></g></g></g></g><g class="relationship"><g transform="translate(-1036.4059996184073 -2887.085001211977) rotate(159.91260425476878)" stroke-width="5" stroke="#000000"><path d="M 59 0 L 108.56188078208055 0"/><polygon points="-24.8621506177483,0 -27.62461179749811,9.20820393249937 0,0 -27.62461179749811,-9.20820393249937" fill="#000000" transform="translate(133.42403139982883 0) rotate(0)" stroke="none"/></g><g transform="translate(-1115.0905311296128 -2858.3101776040185) rotate(339.9126042547687) translate(0 -13)"><g transform="translate(0 0)"><g transform="translate(-37.01953125 0)" fill="#ffffff" stroke="#000000" stroke-width="0"><rect x="0" y="0" width="74.0390625" height="26" rx="5" ry="5" stroke="none"/><text xml:space="preserve" x="5" y="17.5" stroke="none" text-anchor="left" font-family="sans-serif" font-size="16" font-weight="normal" fill="#000000">constitue</text></g></g></g></g><g class="relationship"><g transform="translate(-1036.4059996184073 -2887.085001211977) rotate(93.70889180567237)" stroke-width="5" stroke="#000000"><path d="M 59 0 L 166.10512321133558 0"/><polygon points="-24.8621506177483,0 -27.62461179749811,9.20820393249937 0,0 -27.62461179749811,-9.20820393249937" fill="#000000" transform="translate(190.96727382908387 0) rotate(0)" stroke="none"/></g><g transform="translate(-1043.6867068995189 -2774.7681706589187) rotate(273.70889180567235) translate(0 -13)"><g transform="translate(0 0)"><g transform="translate(-37.45703125 0)" fill="#ffffff" stroke="#000000" stroke-width="0"><rect x="0" y="0" width="74.9140625" height="26" rx="5" ry="5" stroke="none"/><text xml:space="preserve" x="5" y="17.5" stroke="none" text-anchor="left" font-family="sans-serif" font-size="16" font-weight="normal" fill="#000000">fait partis</text></g></g></g></g><g class="relationship"><g transform="translate(-811.1168070705816 -2747.235140058328) rotate(155.5875483807117)" stroke-width="5" stroke="#000000"><path d="M 59 0 L 181.30421969256457 0"/><polygon points="-24.8621506177483,0 -27.62461179749811,9.20820393249937 0,0 -27.62461179749811,-9.20820393249937" fill="#000000" transform="translate(206.16637031031286 0) rotate(0)" stroke="none"/></g><g transform="translate(-920.5265808897628 -2697.5759929316537) rotate(335.58754838071167) translate(0 -13)"><g transform="translate(0 0)"><g transform="translate(-22.33984375 0)" fill="#ffffff" stroke="#000000" stroke-width="0"><rect x="0" y="0" width="44.6796875" height="26" rx="5" ry="5" stroke="none"/><text xml:space="preserve" x="5" y="17.5" stroke="none" text-anchor="left" font-family="sans-serif" font-size="16" font-weight="normal" fill="#000000">avoir</text></g></g></g></g><g class="node"><g fill="#ffffff" stroke="#0062b1" stroke-width="4"><circle cx="-1507.3505056127133" cy="-3148.4160343562085" r="52"/></g><g transform="translate(-1507.3505056127133 -3148.4160343562085)"><g transform="scale(0.73828151171875) translate(0 0)"><g transform="translate(0 0)"><g font-family="sans-serif" font-size="50" font-weight="normal" fill="#0c797d" text-anchor="middle"><text xml:space="preserve" x="0" y="13" stroke="none">User</text></g></g></g></g></g><g class="node"><g fill="#ffffff" stroke="#0062b1" stroke-width="4"><circle cx="-1217.1248444001046" cy="-3008.636963702034" r="52"/></g><g transform="translate(-1217.1248444001046 -3008.636963702034)"><g transform="scale(0.546875453125) translate(0 0)"><g transform="translate(0 0)"><g font-family="sans-serif" font-size="50" font-weight="normal" fill="#653294" text-anchor="middle"><text xml:space="preserve" x="0" y="13" stroke="none">playlist</text></g></g></g></g></g><g class="node"><g fill="#ffffff" stroke="#fcdc00" stroke-width="4"><circle cx="-1646.1600754995782" cy="-2907.9908067353754" r="52"/></g><g transform="translate(-1646.1600754995782 -2907.9908067353754)"><g transform="scale(0.5000005) translate(0 0)"><g transform="translate(0 0)"><g font-family="sans-serif" font-size="50" font-weight="normal" fill="#653294" text-anchor="middle"><text xml:space="preserve" x="0" y="13" stroke="none">session</text></g></g></g></g></g><g class="node"><g fill="#ffffff" stroke="#000000" stroke-width="4"><circle cx="-1437.8821183285995" cy="-2912.638424489215" r="52"/></g><g transform="translate(-1437.8821183285995 -2912.638424489215)"><g transform="scale(0.208985166015625) translate(0 0)"><g transform="translate(0 0)"><g font-family="sans-serif" font-size="50" font-weight="normal" fill="#653294" text-anchor="middle"><text xml:space="preserve" x="0" y="13" stroke="none">subcription_validity</text></g></g></g></g></g><g class="node"><g fill="#ffffff" stroke="#fcdc00" stroke-width="4"><circle cx="-1405.3395596115333" cy="-2669.0036157721643" r="52"/></g><g transform="translate(-1405.3395596115333 -2669.0036157721643)"><g transform="scale(0.359375640625) translate(0 0)"><g transform="translate(0 0)"><g font-family="sans-serif" font-size="50" font-weight="normal" fill="#653294" text-anchor="middle"><text xml:space="preserve" x="0" y="13" stroke="none">subcription</text></g></g></g></g></g><g class="node"><g fill="#ffffff" stroke="#0062b1" stroke-width="4"><circle cx="-942.0519537581597" cy="-3095.206596808707" r="52"/></g><g transform="translate(-942.0519537581597 -3095.206596808707)"><g transform="scale(0.28125071874999996) translate(0 0)"><g transform="translate(0 0)"><g font-family="sans-serif" font-size="50" font-weight="normal" fill="#68bc00" text-anchor="middle"><text xml:space="preserve" x="0" y="13" stroke="none">playlist_tracks</text></g></g></g></g></g><g class="node"><g fill="#ffffff" stroke="#9f0500" stroke-width="4"><circle cx="-1036.4059996184073" cy="-2887.085001211977" r="52"/></g><g transform="translate(-1036.4059996184073 -2887.085001211977)"><g transform="scale(0.7265627734375) translate(0 0)"><g transform="translate(0 0)"><g font-family="sans-serif" font-size="50" font-weight="normal" fill="#0c797d" text-anchor="middle"><text xml:space="preserve" x="0" y="13" stroke="none">track</text></g></g></g></g></g><g class="node"><g fill="#ffffff" stroke="#0062b1" stroke-width="4"><circle cx="-811.1168070705816" cy="-2747.235140058328" r="52"/></g><g transform="translate(-811.1168070705816 -2747.235140058328)"><g transform="scale(0.7265627734375) translate(0 0)"><g transform="translate(0 0)"><g font-family="sans-serif" font-size="50" font-weight="normal" fill="#68bc00" text-anchor="middle"><text xml:space="preserve" x="0" y="13" stroke="none">artist</text></g></g></g></g></g><g class="node"><g fill="#ffffff" stroke="#dbdf00" stroke-width="4"><circle cx="-1217.1248444001046" cy="-2820.9963713205116" r="52"/></g><g transform="translate(-1217.1248444001046 -2820.9963713205116)"><g transform="scale(0.63671911328125) translate(0 0)"><g transform="translate(0 0)"><g font-family="sans-serif" font-size="50" font-weight="normal" fill="#653294" text-anchor="middle"><text xml:space="preserve" x="0" y="13" stroke="none">genre</text></g></g></g></g></g><g class="node"><g fill="#ffffff" stroke="#0062b1" stroke-width="4"><circle cx="-1052.5756764755474" cy="-2637.641260990099" r="52"/></g><g transform="translate(-1052.5756764755474 -2637.641260990099)"><g transform="scale(0.6015628984374999) translate(0 0)"><g transform="translate(0 0)"><g font-family="sans-serif" font-size="50" font-weight="normal" fill="#68bc00" text-anchor="middle"><text xml:space="preserve" x="0" y="13" stroke="none">album</text></g></g></g></g></g></g></svg>